<svg width="645" height="679" viewBox="0 0 645 679" fill="none" xmlns="http://www.w3.org/2000/svg">
<path d="M644.446 484.502H483.485V323.706H644.446V484.502Z" fill="#C62A88"/>
<path d="M483.788 484.049H322.828L483.788 323.253V484.049Z" fill="#590995"/>
<path d="M483.259 323.479L322.299 162.684L483.259 162.684V323.479Z" fill="#03C4A1"/>
<path d="M484.015 323.857L644.899 163.062V323.857H484.015Z" fill="#150485"/>
<path d="M484.015 484.502L644.899 323.781V484.502H484.015Z" fill="#590995"/>
<path d="M322.299 484.426H161.338L161.338 323.631H322.299V484.426Z" fill="#C62A88"/>
<path d="M0 645.6L0 484.804H160.96L0 645.6Z" fill="#590995"/>
<path d="M322.299 323.404H161.338C161.338 234.585 233.389 162.608 322.299 162.608V323.404Z" fill="#03C4A1"/>
<path d="M322.525 645.675H161.565L161.565 484.88C250.475 484.88 322.525 556.856 322.525 645.675Z" fill="#03C4A1"/>
<path d="M161.565 323.555H229.306C229.306 374.989 271.039 416.679 322.525 416.679V484.351C233.615 484.351 161.565 412.374 161.565 323.555Z" fill="#150485"/>
<path d="M322.45 162.684V230.355C270.964 230.355 229.23 272.046 229.23 323.479H161.489C161.565 234.66 233.615 162.684 322.45 162.684Z" fill="#590995"/>
<path d="M322.601 484.426V416.755C374.087 416.755 415.82 375.064 415.82 323.631H483.561C483.486 412.45 411.435 484.426 322.601 484.426Z" fill="#03C4A1"/>
<path d="M483.41 323.479H415.669C415.669 272.046 373.936 230.355 322.449 230.355V162.684C411.359 162.684 483.41 234.66 483.41 323.479Z" fill="#C62A88"/>
<path d="M322.828 645.675V484.88L483.788 645.675H322.828Z" fill="#150485"/>
<path d="M483.41 484.653V645.373L322.449 484.653H483.41Z" fill="#C62A88"/>
<path d="M621.287 508.212C652.761 539.653 652.761 590.629 621.287 622.07C589.814 653.512 538.785 653.512 507.312 622.07C475.839 590.629 475.839 539.653 507.312 508.212C538.785 476.77 589.814 476.77 621.287 508.212Z" fill="#03C4A1"/>
<path d="M161.036 323.933L161.036 484.729H0.151123C0.151123 395.909 72.2015 323.933 161.036 323.933Z" fill="#03C4A1"/>
<path d="M484.015 160.796L644.975 160.796V-1.52588e-05C556.065 -1.52588e-05 484.015 71.9767 484.015 160.796Z" fill="#03C4A1"/>
<path d="M592.717 536.601C608.454 552.322 608.454 577.81 592.717 593.531C576.981 609.251 551.466 609.251 535.73 593.531C519.993 577.81 519.993 552.322 535.73 536.601C551.466 520.88 576.981 520.88 592.717 536.601Z" fill="white"/>
<path d="M161.565 565.24C205.718 565.617 241.403 601.492 241.478 645.675H161.565V565.24Z" fill="#C62A88"/>
<path d="M161.036 484.88L161.036 645.675H0.151123C0.151123 556.856 72.2015 484.88 161.036 484.88Z" fill="white"/>
<path d="M80.5936 645.675C80.9716 601.568 116.883 565.919 161.112 565.844V645.675H80.5936Z" fill="#150485"/>
<path d="M564.457 160.796C564.835 116.688 600.747 81.0399 644.975 80.9644V160.796H564.457Z" fill="#590995"/>
</svg>
