<?xml version="1.0" encoding="UTF-8"?>
<svg width="11200px" height="8000px" viewBox="0 0 11200 8000" version="1.1" xmlns="http://www.w3.org/2000/svg" xmlns:xlink="http://www.w3.org/1999/xlink">
    <!-- Generator: Sketch 55.2 (78181) - https://sketchapp.com -->
    <title>Abstract Background 2</title>
    <desc>Created with Sketch.</desc>
    <defs>
        <rect id="path-1" x="0" y="0" width="1600" height="1600"></rect>
        <rect id="path-3" x="0" y="0" width="1600" height="1600"></rect>
        <rect id="path-5" x="0" y="0" width="1600" height="1600"></rect>
    </defs>
    <g id="Abstract-Background-2" stroke="none" stroke-width="1" fill="none" fill-rule="evenodd">
        <rect fill="#FFFFFF" x="0" y="0" width="11200" height="8000"></rect>
        <rect id="Background" fill="#FFFFFF" x="0" y="0" width="11200" height="8000"></rect>
        <g id="Shapes">
            <g id="Group-35" transform="translate(0.000000, 6400.000000)">
                <rect id="Rectangle" fill="#F4926D" x="0" y="0" width="1600" height="1600"></rect>
                <circle id="Oval" fill="#F6C05C" cx="800" cy="800" r="600"></circle>
                <circle id="Oval" fill="#131D1C" cx="800" cy="800" r="350"></circle>
                <circle id="Oval-" fill="#E55410" cx="800" cy="800" r="125"></circle>
            </g>
            <g id="Group-34" transform="translate(800.000000, 5600.000000) rotate(90.000000) translate(-800.000000, -5600.000000) translate(0.000000, 4800.000000)">
                <rect id="Rectangle" fill="#F6C05C" x="0" y="0" width="1600" height="1600"></rect>
                <g id="Group" transform="translate(225.000000, 225.000000)" fill="#131D1C">
                    <circle id="Oval" cx="125" cy="125" r="125"></circle>
                    <circle id="Oval-" cx="1025" cy="125" r="125"></circle>
                    <circle id="Oval-" cx="575" cy="125" r="125"></circle>
                    <circle id="Oval" cx="125" cy="575" r="125"></circle>
                    <circle id="Oval-" cx="1025" cy="575" r="125"></circle>
                    <circle id="Oval" cx="575" cy="575" r="125"></circle>
                    <circle id="Oval-" cx="125" cy="1025" r="125"></circle>
                    <circle id="Oval-" cx="1025" cy="1025" r="125"></circle>
                    <circle id="Oval-" cx="575" cy="1025" r="125"></circle>
                </g>
            </g>
            <g id="Group-33" transform="translate(800.000000, 4000.000000) scale(-1, -1) translate(-800.000000, -4000.000000) translate(0.000000, 3200.000000)">
                <rect id="Rectangle" fill="#779AB8" x="0" y="0" width="1600" height="1600"></rect>
                <path d="M1600,1600 C1600,716.3444 883.6556,0 2.72848411e-12,0 C7.95807864e-13,883.6556 716.3444,1600 1600,1600 Z" id="Combined-Shape" fill="#F4E7D7" transform="translate(800.000000, 800.000000) scale(1, -1) translate(-800.000000, -800.000000) "></path>
            </g>
            <g id="Group-32" transform="translate(800.000000, 2400.000000) scale(-1, 1) translate(-800.000000, -2400.000000) translate(0.000000, 1600.000000)">
                <rect id="Rectangle" fill="#E55410" x="0" y="0" width="1600" height="1600"></rect>
                <path d="M1600,800 C1600,358.1722 1241.8278,0 800,0 L800,800" id="Path" fill="#F6C05C" transform="translate(1200.000000, 400.000000) scale(-1, 1) translate(-1200.000000, -400.000000) "></path>
                <path d="M800,800 C800,358.1722 441.8278,0 0,0 L0,800" id="Path" fill="#779AB8"></path>
            </g>
            <g id="Group-31" transform="translate(800.000000, 800.000000) scale(-1, 1) translate(-800.000000, -800.000000) ">
                <rect id="Rectangle" fill="#F4E7D7" x="0" y="0" width="1600" height="1600"></rect>
                <path d="M1600,1600 C1600,1158.1722 1241.8278,800 800,800 L800,1600" id="Path" fill="#F6C05C" transform="translate(1200.000000, 1200.000000) scale(-1, -1) translate(-1200.000000, -1200.000000) "></path>
                <path d="M800,1600 C800,1158.1722 441.8278,800 0,800 L0,1600" id="Path" fill="#779AB8" transform="translate(400.000000, 1200.000000) scale(1, -1) translate(-400.000000, -1200.000000) "></path>
            </g>
            <g id="Group-30" transform="translate(2400.000000, 7200.000000) scale(-1, 1) translate(-2400.000000, -7200.000000) translate(1600.000000, 6400.000000)">
                <rect id="Rectangle" fill="#F4E7D7" transform="translate(800.000000, 800.000000) scale(1, -1) translate(-800.000000, -800.000000) " x="0" y="0" width="1600" height="1600"></rect>
                <path d="M1600,1600 C1600,716.3444 883.6556,0 2.72848411e-12,0 C7.95807864e-13,883.6556 716.3444,1600 1600,1600 Z" id="Combined-Shape" fill="#F6C05C" transform="translate(800.000000, 800.000000) scale(-1, -1) translate(-800.000000, -800.000000) "></path>
            </g>
            <g id="Group-29" transform="translate(2400.000000, 5600.000000) scale(-1, 1) rotate(90.000000) translate(-2400.000000, -5600.000000) translate(1600.000000, 4800.000000)">
                <rect id="Rectangle" fill="#131D1C" x="0" y="4.54747351e-13" width="1600" height="1600"></rect>
                <path d="M1600,1600 C1600,716.3444 883.6556,4.54747351e-13 2.72848411e-12,4.54747351e-13 C7.95807864e-13,883.6556 716.3444,1600 1600,1600 Z" id="Combined-Shape" fill="#E55410" transform="translate(800.000000, 800.000000) scale(-1, -1) translate(-800.000000, -800.000000) "></path>
            </g>
            <g id="Group-28" transform="translate(1600.000000, 3200.000000)">
                <rect id="Rectangle" fill="#779AB8" x="0" y="0" width="1600" height="1600"></rect>
                <rect id="Rectangle" fill="#E55410" x="0" y="800" width="800" height="800"></rect>
                <rect id="Rectangle" fill="#F4E7D7" x="800" y="800" width="800" height="800"></rect>
                <rect id="Rectangle" fill="#F6C05C" x="1.13686838e-13" y="0" width="800" height="800"></rect>
            </g>
            <g id="Group-27" transform="translate(2400.000000, 2400.000000) scale(-1, -1) translate(-2400.000000, -2400.000000) translate(1600.000000, 1600.000000)">
                <rect id="Rectangle" fill="#131D1C" x="0" y="0" width="1600" height="1600"></rect>
                <g id="Group" transform="translate(225.000000, 225.000000)" fill="#F4E7D7">
                    <circle id="Oval" cx="125" cy="125" r="125"></circle>
                    <circle id="Oval-" cx="1025" cy="125" r="125"></circle>
                    <circle id="Oval-" cx="575" cy="125" r="125"></circle>
                    <circle id="Oval" cx="125" cy="575" r="125"></circle>
                    <circle id="Oval-" cx="1025" cy="575" r="125"></circle>
                    <circle id="Oval" cx="575" cy="575" r="125"></circle>
                    <circle id="Oval-" cx="125" cy="1025" r="125"></circle>
                    <circle id="Oval-" cx="1025" cy="1025" r="125"></circle>
                    <circle id="Oval-" cx="575" cy="1025" r="125"></circle>
                </g>
            </g>
            <g id="Group-26" transform="translate(1600.000000, 0.000000)">
                <rect id="Rectangle" fill="#F6C05C" x="0" y="0" width="1600" height="1600"></rect>
                <circle id="Oval" fill="#131D1C" cx="800" cy="800" r="600"></circle>
                <circle id="Oval" fill="#E55410" cx="800" cy="800" r="350"></circle>
                <circle id="Oval-" fill="#779AB8" cx="800" cy="800" r="125"></circle>
            </g>
            <g id="Group-25" transform="translate(4000.000000, 7200.000000) rotate(90.000000) translate(-4000.000000, -7200.000000) translate(3200.000000, 6400.000000)">
                <rect id="Rectangle" fill="#779AB8" x="0" y="0" width="1600" height="1600"></rect>
                <path d="M1600,1600 C1600,716.3444 883.6556,0 2.72848411e-12,0 C7.95807864e-13,883.6556 716.3444,1600 1600,1600 Z" id="Combined-Shape" fill="#131D1C" transform="translate(800.000000, 800.000000) scale(1, -1) translate(-800.000000, -800.000000) "></path>
            </g>
            <g id="Group-24" transform="translate(4000.000000, 5600.000000) scale(-1, 1) rotate(180.000000) translate(-4000.000000, -5600.000000) translate(3200.000000, 4800.000000)">
                <rect id="Rectangle" fill="#E55410" x="0" y="0" width="1600" height="1600"></rect>
                <path d="M1600,0 C716.3444,0 4.54747351e-13,716.3444 4.54747351e-13,1600 L1600,1600" id="Path" fill="#131D1C" transform="translate(800.000000, 800.000000) scale(-1, -1) translate(-800.000000, -800.000000) "></path>
                <path d="M800,800 C800,358.1722 441.8278,0 0,0 L0,800" id="Path" fill="#E55410" transform="translate(400.000000, 400.000000) scale(1, -1) translate(-400.000000, -400.000000) "></path>
            </g>
            <g id="Group-23" transform="translate(4000.000000, 4000.000000) scale(-1, 1) translate(-4000.000000, -4000.000000) translate(3200.000000, 3200.000000)">
                <rect id="Rectangle" fill="#F6C05C" x="0" y="0" width="1600" height="1600"></rect>
                <path d="M1600,0 C716.3444,0 0,716.3444 0,1600 L1600,1600" id="Path" fill="#F4E7D7" transform="translate(800.000000, 800.000000) scale(1, -1) translate(-800.000000, -800.000000) "></path>
                <path d="M1600,800 C1600,358.1722 1241.8278,0 800,0 L800,800" id="Path" fill="#E55410" transform="translate(1200.000000, 400.000000) scale(-1, -1) translate(-1200.000000, -400.000000) "></path>
            </g>
            <g id="Group-22" transform="translate(4000.000000, 2400.000000) scale(-1, -1) translate(-4000.000000, -2400.000000) translate(3200.000000, 1600.000000)">
                <rect id="Rectangle" fill="#779AB8" x="0" y="0" width="1600" height="1600"></rect>
                <path d="M1600,1600 C1600,716.3444 883.6556,0 2.72848411e-12,0 C7.95807864e-13,883.6556 716.3444,1600 1600,1600 Z" id="Combined-Shape" fill="#F4E7D7" transform="translate(800.000000, 800.000000) scale(1, -1) translate(-800.000000, -800.000000) "></path>
            </g>
            <g id="Group-21" transform="translate(3200.000000, 0.000000)">
                <rect id="Rectangle" fill="#E55410" x="0" y="0" width="1600" height="1600"></rect>
                <path d="M1600,1600 C1600,716.3444 883.6556,0 2.72848411e-12,0 C7.95807864e-13,883.6556 716.3444,1600 1600,1600 Z" id="Combined-Shape" fill="#779AB8"></path>
            </g>
            <g id="Group-20" transform="translate(5600.000000, 7200.000000) rotate(180.000000) translate(-5600.000000, -7200.000000) translate(4800.000000, 6400.000000)">
                <rect id="Rectangle" fill="#E55410" x="0" y="0" width="1600" height="1600"></rect>
                <g id="Group" transform="translate(225.000000, 225.000000)" fill="#779AB8">
                    <circle id="Oval" cx="125" cy="125" r="125"></circle>
                    <circle id="Oval" cx="1025" cy="125" r="125"></circle>
                    <circle id="Oval" cx="575" cy="125" r="125"></circle>
                    <circle id="Oval" cx="125" cy="575" r="125"></circle>
                    <circle id="Oval" cx="1025" cy="575" r="125"></circle>
                    <circle id="Oval" cx="575" cy="575" r="125"></circle>
                    <circle id="Oval" cx="125" cy="1025" r="125"></circle>
                    <circle id="Oval" cx="1025" cy="1025" r="125"></circle>
                    <circle id="Oval" cx="575" cy="1025" r="125"></circle>
                </g>
            </g>
            <g id="Group-19" transform="translate(4800.000000, 4800.000000)">
                <rect id="Rectangle" fill="#F4E7D7" x="0" y="0" width="1600" height="1600"></rect>
                <circle id="Oval" fill="#779AB8" cx="800" cy="800" r="600"></circle>
                <circle id="Oval" fill="#F6C05C" cx="800" cy="800" r="350"></circle>
                <circle id="Oval-" fill="#131D1C" cx="800" cy="800" r="125"></circle>
            </g>
            <g id="Group-18" transform="translate(5600.000000, 4000.000000) rotate(90.000000) translate(-5600.000000, -4000.000000) translate(4800.000000, 3200.000000)">
                <rect id="Rectangle" fill="#779AB8" x="0" y="0" width="1600" height="1600"></rect>
                <path d="M1600,0 C716.3444,0 0,716.3444 0,1600 L1600,1600" id="Path" fill="#131D1C" transform="translate(800.000000, 800.000000) scale(1, -1) translate(-800.000000, -800.000000) "></path>
                <path d="M1600,800 C1600,358.1722 1241.8278,0 800,0 L800,800" id="Path" fill="#779AB8" transform="translate(1200.000000, 400.000000) scale(-1, -1) translate(-1200.000000, -400.000000) "></path>
            </g>
            <g id="Group-17" transform="translate(5600.000000, 2400.000000) rotate(90.000000) translate(-5600.000000, -2400.000000) translate(4800.000000, 1600.000000)">
                <rect id="Rectangle" fill="#779AB8" x="2.27373675e-13" y="0" width="1600" height="1600"></rect>
                <path d="M1600,0 C716.3444,0 0,716.3444 0,1600 L1600,1600" id="Path" fill="#F6C05C" transform="translate(800.000000, 800.000000) scale(-1, 1) translate(-800.000000, -800.000000) "></path>
                <path d="M800,1600 C800,1158.1722 441.8278,800 0,800 L0,1600" id="Path" fill="#F4E7D7" transform="translate(400.000000, 1200.000000) scale(1, -1) translate(-400.000000, -1200.000000) "></path>
            </g>
            <g id="Group-16" transform="translate(5600.000000, 800.000000) scale(1, -1) translate(-5600.000000, -800.000000) translate(4800.000000, 0.000000)">
                <rect id="Rectangle" fill="#E55410" x="0" y="0" width="1600" height="1600"></rect>
                <path d="M1600,0 C716.3444,0 0,716.3444 0,1600 L1600,1600" id="Path" fill="#F4E7D7" transform="translate(800.000000, 800.000000) scale(-1, -1) translate(-800.000000, -800.000000) "></path>
                <path d="M800,800 C800,358.1722 441.8278,0 0,0 L0,800" id="Path" fill="#F6C05C" transform="translate(400.000000, 400.000000) scale(-1, -1) translate(-400.000000, -400.000000) "></path>
            </g>
            <g id="Group-15" transform="translate(7200.000000, 7200.000000) scale(-1, -1) rotate(180.000000) translate(-7200.000000, -7200.000000) translate(6400.000000, 6400.000000)">
                <rect id="Rectangle" fill="#F4E7D7" x="0" y="0" width="1600" height="1600"></rect>
                <path d="M1600,1600 C1600,716.3444 883.6556,0 2.72848411e-12,0 C7.95807864e-13,883.6556 716.3444,1600 1600,1600 Z" id="Combined-Shape" fill="#F6C05C" transform="translate(800.000000, 800.000000) scale(-1, -1) translate(-800.000000, -800.000000) "></path>
            </g>
            <g id="Group-14" transform="translate(6400.000000, 4800.000000)">
                <rect id="Rectangle" fill="#131D1C" x="0" y="0" width="1600" height="1600"></rect>
                <path d="M1600,800 C1600,358.1722 1241.8278,0 800,0 L800,800" id="Path" fill="#F6C05C" transform="translate(1200.000000, 400.000000) scale(-1, 1) translate(-1200.000000, -400.000000) "></path>
                <path d="M800,800 C800,358.1722 441.8278,0 0,0 L0,800" id="Path" fill="#779AB8"></path>
            </g>
            <g id="Group-13" transform="translate(6400.000000, 3200.000000)">
                <rect id="Rectangle" fill="#131D1C" x="0" y="0" width="1600" height="1600"></rect>
                <path d="M1600,1600 C1600,1158.1722 1241.8278,800 800,800 L800,1600" id="Path" fill="#F6C05C" transform="translate(1200.000000, 1200.000000) scale(-1, -1) translate(-1200.000000, -1200.000000) "></path>
                <path d="M800,1600 C800,1158.1722 441.8278,800 0,800 L0,1600" id="Path" fill="#779AB8" transform="translate(400.000000, 1200.000000) scale(1, -1) translate(-400.000000, -1200.000000) "></path>
            </g>
            <g id="Group-12" transform="translate(6400.000000, 1600.000000)">
                <rect id="Rectangle" fill="#F4E7D7" x="0" y="0" width="1600" height="1600"></rect>
                <rect id="Rectangle" fill="#131D1C" x="0" y="0" width="800" height="800"></rect>
                <rect id="Rectangle" fill="#E55410" x="800" y="0" width="800" height="800"></rect>
                <rect id="Rectangle" fill="#F6C05C" x="800" y="800" width="800" height="800"></rect>
            </g>
            <g id="Group-11" transform="translate(6400.000000, 0.000000)">
                <rect id="Rectangle" fill="#779AB8" x="0" y="0" width="1600" height="1600"></rect>
                <g id="Group" transform="translate(225.000000, 225.000000)" fill="#F6C05C">
                    <circle id="Oval" cx="125" cy="125" r="125"></circle>
                    <circle id="Oval-" cx="1025" cy="125" r="125"></circle>
                    <circle id="Oval-" cx="575" cy="125" r="125"></circle>
                    <circle id="Oval" cx="125" cy="575" r="125"></circle>
                    <circle id="Oval-" cx="1025" cy="575" r="125"></circle>
                    <circle id="Oval" cx="575" cy="575" r="125"></circle>
                    <circle id="Oval-" cx="125" cy="1025" r="125"></circle>
                    <circle id="Oval-" cx="1025" cy="1025" r="125"></circle>
                    <circle id="Oval-" cx="575" cy="1025" r="125"></circle>
                </g>
            </g>
            <g id="Group-10" transform="translate(8800.000000, 7200.000000) rotate(180.000000) translate(-8800.000000, -7200.000000) translate(8000.000000, 6400.000000)">
                <rect id="Rectangle" fill="#F6C05C" x="0" y="0" width="1600" height="1600"></rect>
                <path d="M1600,1600 C1600,716.3444 883.6556,0 2.72848411e-12,0 C7.95807864e-13,883.6556 716.3444,1600 1600,1600 Z" id="Combined-Shape" fill="#F4E7D7" transform="translate(800.000000, 800.000000) scale(1, -1) translate(-800.000000, -800.000000) "></path>
            </g>
            <g id="Group-9" transform="translate(8000.000000, 4800.000000)">
                <rect id="Rectangle" fill="#779AB8" x="0" y="0" width="1600" height="1600"></rect>
                <path d="M1600,0 C716.3444,0 0,716.3444 0,1600 L1600,1600" id="Path" fill="#131D1C" transform="translate(800.000000, 800.000000) scale(-1, -1) translate(-800.000000, -800.000000) "></path>
                <path d="M800,800 C800,358.1722 441.8278,0 0,0 L0,800" id="Path" fill="#F6C05C" transform="translate(400.000000, 400.000000) scale(1, -1) translate(-400.000000, -400.000000) "></path>
            </g>
            <g id="Group-8" transform="translate(8000.000000, 3200.000000)">
                <rect id="Rectangle" fill="#E55410" x="0" y="0" width="1600" height="1600"></rect>
                <circle id="Oval" fill="#F4E7D7" cx="800" cy="800" r="600"></circle>
                <circle id="Oval" fill="#779AB8" cx="800" cy="800" r="350"></circle>
                <circle id="Oval-" fill="#F6C05C" cx="800" cy="800" r="125"></circle>
            </g>
            <g id="Group-7" transform="translate(8000.000000, 1600.000000)">
                <mask id="mask-2" fill="white">
                    <use xlink:href="#path-1"></use>
                </mask>
                <use id="Rectangle" fill="#F4E7D7" transform="translate(800.000000, 800.000000) scale(-1, 1) translate(-800.000000, -800.000000) " xlink:href="#path-1"></use>
                <path d="M1600,1600 C1600,716.3444 883.6556,0 2.72848411e-12,0 C7.95807864e-13,883.6556 716.3444,1600 1600,1600 Z" id="Combined-Shape" fill="#779AB8" mask="url(#mask-2)" transform="translate(800.000000, 800.000000) scale(1, -1) translate(-800.000000, -800.000000) "></path>
            </g>
            <g id="Group-6" transform="translate(8000.000000, 0.000000)">
                <mask id="mask-4" fill="white">
                    <use xlink:href="#path-3"></use>
                </mask>
                <use id="Rectangle" fill="#131D1C" transform="translate(800.000000, 800.000000) scale(-1, 1) translate(-800.000000, -800.000000) " xlink:href="#path-3"></use>
                <path d="M1600,1600 C1600,716.3444 883.6556,0 2.72848411e-12,0 C7.95807864e-13,883.6556 716.3444,1600 1600,1600 Z" id="Combined-Shape" fill="#F4E7D7" mask="url(#mask-4)" transform="translate(800.000000, 800.000000) scale(-1, -1) translate(-800.000000, -800.000000) "></path>
            </g>
            <g id="Group-5" transform="translate(9600.000000, 6400.000000)">
                <rect id="Rectangle" fill="#779AB8" x="0" y="0" width="1600" height="1600"></rect>
                <path d="M1600,1600 C1600,1158.1722 1241.8278,800 800,800 L800,1600" id="Path" fill="#131D1C" transform="translate(1200.000000, 1200.000000) scale(-1, 1) translate(-1200.000000, -1200.000000) "></path>
                <path d="M1600,800 C1600,358.1722 1241.8278,0 800,0 L800,800" id="Path" fill="#131D1C" transform="translate(1200.000000, 400.000000) scale(-1, -1) translate(-1200.000000, -400.000000) "></path>
            </g>
            <g id="Group-4" transform="translate(9600.000000, 4800.000000)">
                <rect id="Rectangle" fill="#F4E7D7" x="0" y="0" width="1600" height="1600"></rect>
                <rect id="Rectangle" fill="#779AB8" x="800" y="800" width="800" height="800"></rect>
                <rect id="Rectangle" fill="#F6C05C" x="800" y="0" width="800" height="800"></rect>
                <rect id="Rectangle" fill="#131D1C" x="5.68434189e-13" y="800" width="800" height="800"></rect>
            </g>
            <g id="Group-3" transform="translate(9600.000000, 3200.000000)">
                <mask id="mask-6" fill="white">
                    <use xlink:href="#path-5"></use>
                </mask>
                <use id="Rectangle" fill="#131D1C" xlink:href="#path-5"></use>
                <g id="Group" mask="url(#mask-6)" fill="#E55410">
                    <g transform="translate(225.000000, 225.000000)" id="Oval">
                        <circle cx="125" cy="125" r="125"></circle>
                        <circle cx="1025" cy="125" r="125"></circle>
                        <circle cx="575" cy="125" r="125"></circle>
                        <circle cx="125" cy="575" r="125"></circle>
                        <circle cx="1025" cy="575" r="125"></circle>
                        <circle cx="575" cy="575" r="125"></circle>
                        <circle cx="125" cy="1025" r="125"></circle>
                        <circle cx="1025" cy="1025" r="125"></circle>
                        <circle cx="575" cy="1025" r="125"></circle>
                    </g>
                </g>
            </g>
            <g id="Group-2" transform="translate(9600.000000, 1600.000000)">
                <rect id="Rectangle" fill="#F6C05C" x="0" y="0" width="1600" height="1600"></rect>
                <path d="M1600,1600 C1600,716.3444 883.6556,0 2.72848411e-12,0 C7.95807864e-13,883.6556 716.3444,1600 1600,1600 Z" id="Combined-Shape" fill="#F4E7D7" transform="translate(800.000000, 800.000000) scale(-1, -1) translate(-800.000000, -800.000000) "></path>
            </g>
            <g id="Group-1" transform="translate(9600.000000, 0.000000)">
                <rect id="Rectangle" fill="#779AB8" x="0" y="0" width="1600" height="1600"></rect>
                <path d="M1600,1600 C1600,716.3444 883.6556,0 2.72848411e-12,0 C7.95807864e-13,883.6556 716.3444,1600 1600,1600 Z" id="Combined-Shape" fill="#E55410" transform="translate(800.000000, 800.000000) scale(-1, 1) translate(-800.000000, -800.000000) "></path>
            </g>
        </g>
    </g>
</svg>